<?xml version="1.0" encoding="utf-8"?>
<!-- Generator: Adobe Illustrator 21.0.0, SVG Export Plug-In . SVG Version: 6.00 Build 0)  -->
<svg version="1.1" id="Capa_1" xmlns="http://www.w3.org/2000/svg" xmlns:xlink="http://www.w3.org/1999/xlink" x="0px" y="0px"
	 viewBox="0 0 91 23" style="enable-background:new 0 0 91 23;" xml:space="preserve">
<style type="text/css">
	.st0{fill:#FFFFFF;}
</style>
<path class="st0" d="M32.9,0c0,0-1.2,0.5-2.8,2.5l-8.9,11.2v6.7c0,1.7,0.7,2.6,0.7,2.6h-11c0,0,0.7-0.8,0.7-2.5v-6.7L2.8,2.6
	C1.2,0.6,0,0,0,0h11.2c0,0,0.3,1.1,1.5,2.9l3.7,5.8h0.1l3.8-5.8C21.4,1.1,21.8,0,21.8,0H32.9z"/>
<path class="st0" d="M49.3,10.7h-3V4.3h3.1c2.2,0,4,0.9,4,3.2C53.3,9.7,51.5,10.7,49.3,10.7 M54.1,0H36c0,0,0.7,0.8,0.7,2.6v17.8
	c0,1.7-0.7,2.5-0.7,2.5h10.9c0,0-0.7-0.8-0.7-2.6v-5.5h7.9c5,0,8.8-2.6,8.8-7.4C62.9,2.7,59.3,0,54.1,0"/>
<path class="st0" d="M90.9,5.4c0,0-1-0.6-2.7-0.6H77.3v5.5H86c1.7,0,2.9-0.4,2.9-0.4v5.5c0,0-1.2-0.5-3-0.5h-8.7v5.6
	c0,1.7,0.6,2.5,0.6,2.5H67.1c0,0,0.7-0.8,0.7-2.5v-18c0-1.7-0.7-2.5-0.7-2.5H91L90.9,5.4L90.9,5.4z"/>
</svg>
