<?xml version="1.0" encoding="utf-8"?>
<!-- Generator: Adobe Illustrator 21.0.0, SVG Export Plug-In . SVG Version: 6.00 Build 0)  -->
<svg version="1.1" id="Capa_1" xmlns="http://www.w3.org/2000/svg" xmlns:xlink="http://www.w3.org/1999/xlink" x="0px" y="0px"
	 viewBox="0 0 67 48" style="enable-background:new 0 0 67 48;" xml:space="preserve">
<style type="text/css">
	.st0{fill:#FFFFFF;}
</style>
<path class="st0" d="M33.5,36.1c-6.7,0-12.1-5.4-12.1-12.1c0-6.7,5.4-12.1,12.1-12.1c6.7,0,12.1,5.4,12.1,12.1
	C45.6,30.7,40.2,36.1,33.5,36.1z M33.5,15.9c-4.5,0-8.1,3.6-8.1,8.1s3.6,8.1,8.1,8.1c4.5,0,8.1-3.6,8.1-8.1S38,15.9,33.5,15.9z"/>
<path class="st0" d="M33.5,48C15.3,48,0.3,29.9,0.3,24S15.3,0,33.5,0s33.2,18.1,33.2,24S51.7,48,33.5,48z M33.5,4
	C17.1,4,4.3,20.9,4.3,24c0,3.1,12.8,20,29.2,20c16.4,0,29.2-16.9,29.2-20C62.7,20.9,49.9,4,33.5,4z"/>
</svg>
