<?xml version="1.0" encoding="utf-8"?>
<!-- Generator: Adobe Illustrator 21.0.0, SVG Export Plug-In . SVG Version: 6.00 Build 0)  -->
<svg version="1.1" id="Capa_1" xmlns="http://www.w3.org/2000/svg" xmlns:xlink="http://www.w3.org/1999/xlink" x="0px" y="0px"
	 viewBox="0 0 72 72" style="enable-background:new 0 0 72 72;" xml:space="preserve">
<style type="text/css">
	.st0{fill:#00407B;}
</style>
<path class="st0" d="M57.4,54.6C66.2,48.3,72,39.8,72,36c0-6.4-16.2-26-36-26c-6.5,0-12.7,2.1-17.9,5.2L3.4,0.6
	c-0.8-0.8-2-0.8-2.8,0c-0.8,0.8-0.8,2,0,2.8l14,14C5.8,23.7,0,32.2,0,36c0,6.4,16.2,26,36,26c6.5,0,12.7-2.1,17.9-5.2l14.6,14.6
	C69,71.8,69.5,72,70,72s1-0.2,1.4-0.6c0.8-0.8,0.8-2,0-2.8L57.4,54.6z M36,14c18.3,0,32,18.5,32,22c0,2.2-5.2,10-13.5,15.7l-8.1-8.1
	c1.6-2.2,2.5-4.8,2.5-7.7c0-7.2-5.8-13-13-13c-2.9,0-5.5,0.9-7.7,2.5l-7.4-7.4C25.4,15.7,30.5,14,36,14z M28.4,31.2l12.4,12.4
	c-1.4,0.9-3,1.4-4.8,1.4c-5,0-9-4-9-9C27,34.2,27.5,32.6,28.4,31.2z M31.2,28.4c1.4-0.9,3-1.4,4.8-1.4c5,0,9,4,9,9
	c0,1.8-0.5,3.4-1.4,4.8L31.2,28.4z M36,58C17.7,58,4,39.5,4,36c0-2.2,5.2-10,13.5-15.7l8.1,8.1C23.9,30.5,23,33.1,23,36
	c0,7.2,5.8,13,13,13c2.9,0,5.5-0.9,7.7-2.5l7.4,7.4C46.6,56.3,41.5,58,36,58z"/>
</svg>
